<svg xmlns="http://www.w3.org/2000/svg" version="1.1" xmlns:xlink="http://www.w3.org/1999/xlink" width="512" height="512" x="0" y="0" viewBox="0 0 64 64" style="enable-background:new 0 0 512 512" xml:space="preserve" class=""><g><path fill="#ff826e" d="M12 62H2v-9a16.97 16.97 0 0 1 10.05-15.51c1.83-.83 3.84-1.34 5.95-1.46L20 50l.2-.25c1.66-2.07 3.79-3.68 6.19-4.69L29 52l-2 10zM52 62H37l-2-10 2.61-6.94c2.4 1.01 4.53 2.62 6.19 4.69l.2.25 2-13.97c2.11.12 4.12.63 5.95 1.46A16.97 16.97 0 0 1 62 53v9z" opacity="1" data-original="#ff826e" class=""></path><path fill="#fc6e51" d="m21 36 8.16 8.16c-.95.22-1.88.51-2.77.9-2.4 1.01-4.53 2.62-6.19 4.69L20 50l-2-13.97c.33-.02.67-.03 1-.03zM34.84 44.16 43 36h2c.33 0 .67.01 1 .03L44 50l-.2-.25a15.805 15.805 0 0 0-6.19-4.69c-.89-.39-1.82-.68-2.77-.9z" opacity="1" data-original="#fc6e51" class=""></path><path fill="#ccd1d9" d="m35 52 2 10H27l2-10z" opacity="1" data-original="#ccd1d9"></path><path fill="#aab2bd" d="M37.61 45.06 35 52h-6l-2.61-6.94c.89-.39 1.82-.68 2.77-.9L32 47l2.84-2.84c.95.22 1.88.51 2.77.9z" opacity="1" data-original="#aab2bd"></path><path fill="#e6e9ed" d="m21 36 11 11 11-11z" opacity="1" data-original="#e6e9ed"></path><path fill="#ffc729" d="M12 36c0 .5.02.99.05 1.48v.01a16.77 16.77 0 0 0-3.9 2.42c-.37-.55-1.01-.91-1.71-.91H4v-6h2.44c.99 0 1.83-.7 2.02-1.67 0-.01.01-.02.01-.03.19-.97-.32-1.93-1.23-2.31l-2.26-.93 2.3-5.55 2.26.94c.91.37 1.95.05 2.5-.77 0-.01.01-.01.02-.02.55-.82.44-1.91-.25-2.61l-1.73-1.73 4.24-4.24 1.73 1.73c.7.69 1.79.8 2.61.25.01-.01.01-.02.02-.02.64-.43.98-1.16.92-1.89 2.07 1.18 4.46 1.85 6.96 1.85H32c-5.59 0-10.65 2.3-14.28 6H16l.53 1.32A19.933 19.933 0 0 0 12 36zM47.23 12c-4.11.02-7.92 1.72-10.65 4.53-1.47-.35-3.01-.53-4.58-.53v-1c0-2.57-.75-4.97-2.05-6.99l.01-.01H35v2.44c0 .99.7 1.83 1.67 2.02.01 0 .02.01.03.01.97.19 1.93-.32 2.31-1.23l.93-2.26zM49.58 13.98l4.34 4.34-1.73 1.73c-.69.7-.8 1.79-.25 2.61.01.01.02.01.02.02.55.82 1.59 1.14 2.5.77l2.26-.94 2.3 5.55-2.26.93c-.91.38-1.42 1.34-1.23 2.31 0 .01.01.02.01.03.19.97 1.03 1.67 2.02 1.67H60v6h-2.44c-.7 0-1.34.36-1.71.91-1.18-.97-2.49-1.8-3.9-2.42v-.01c.03-.49.05-.98.05-1.48 0-5.37-2.11-10.24-5.55-13.83a10.91 10.91 0 0 0 2.41-4.87z" opacity="1" data-original="#ffc729" class=""></path><path fill="#fcd770" d="M17.99 26.97c.38.95.94 1.81 1.61 2.52C18.58 31.44 18 33.65 18 36v.03c-2.11.12-4.12.63-5.95 1.46v-.01c-.03-.49-.05-.98-.05-1.48 0-4.81 1.7-9.23 4.53-12.68zM32 16v6c-1.91 0-3.74.38-5.4 1.08v.01c-1.2-.7-2.57-1.09-4.02-1.09h-4.86c3.63-3.7 8.69-6 14.28-6zM36.58 16.53a14.771 14.771 0 0 0-3.42 5.52h-.01c-.39-.03-.76-.05-1.15-.05v-6c1.57 0 3.11.18 4.58.53zM52 36c0 .5-.02.99-.05 1.48v.01c-1.83-.83-3.84-1.34-5.95-1.46V36c0-4.17-1.82-7.91-4.71-10.47 2.02-.61 3.81-1.78 5.16-3.36C49.89 25.76 52 30.63 52 36z" opacity="1" data-original="#fcd770"></path><path fill="#48cfad" d="M31.97 31.92H32V32h-6.58a8.01 8.01 0 0 1-7.43-5.03l-1.46-3.65L16 22h6.58c1.45 0 2.82.39 4.02 1.09 1.51.87 2.73 2.24 3.41 3.94z" opacity="1" data-original="#48cfad"></path><path fill="#5cd6b3" d="m32.03 25.91.86-3.03c.08-.28.17-.56.26-.83h.01c.73-2.11 1.91-3.98 3.42-5.52 2.73-2.81 6.54-4.51 10.65-4.53H50l-.42 1.98-.72 3.32a10.91 10.91 0 0 1-2.41 4.87 10.945 10.945 0 0 1-5.16 3.36c-1.01.31-2.08.47-3.18.47H32v-.09zM32 15v1h-5.44A13.985 13.985 0 0 1 13.1 5.85L12 2h7c4.61 0 8.65 2.4 10.95 6.01C31.25 10.03 32 12.43 32 15z" opacity="1" data-original="#5cd6b3" class=""></path><path d="M57.433 40.016c.043-.005.084-.016.128-.016H61v-8h-3.439c-.505 0-.942-.362-1.047-.896a1.063 1.063 0 0 1 .632-1.189l3.178-1.316-3.062-7.391-3.18 1.316c-.467.192-1.007.025-1.309-.426a1.065 1.065 0 0 1 .127-1.342l2.434-2.434-4.666-4.666.569-2.656h-3.811l-8.024-3.323-1.316 3.178c-.191.464-.681.731-1.121.648l-.104-.023A1.065 1.065 0 0 1 36 10.439V7h-5.527C27.94 3.378 23.745 1 19 1h-8.325l1.462 5.12a15.015 15.015 0 0 0 6.402 8.535 1.12 1.12 0 0 1-.441.571c-.42.282-.985.229-1.342-.127l-2.434-2.434-5.656 5.656 2.434 2.434c.356.356.409.921.107 1.372a1.068 1.068 0 0 1-1.289.396l-3.18-1.316-3.062 7.391 3.178 1.316c.465.192.73.692.648 1.121l-.023.104a1.064 1.064 0 0 1-1.04.861H3v8h3.439c.044 0 .085.011.128.016C3.144 43.294 1 47.898 1 53v10h62V53c0-5.102-2.144-9.706-5.567-12.984zm-4.927-21.694-1.02 1.02a3.075 3.075 0 0 0-.355 3.897 3.071 3.071 0 0 0 3.717 1.132l1.332-.551 1.53 3.695-1.33.551c-1.343.556-2.111 1.997-1.822 3.459A3.07 3.07 0 0 0 57.561 34H59v4h-1.439c-.66 0-1.278.23-1.795.609a18.038 18.038 0 0 0-2.798-1.725c.012-.294.032-.587.032-.884 0-5.147-1.874-10.028-5.259-13.866a11.882 11.882 0 0 0 2.1-4.62l.328-1.53zM29.819 53h4.361l1.6 8h-7.56zm4.488-2h-4.615l-2.01-5.362c.388-.137.782-.257 1.181-.361L32 48.414l3.136-3.136c.399.104.793.224 1.181.361zM13.002 36.05 13 36c0-3.8 1.152-7.517 3.266-10.644l.794 1.985a9.079 9.079 0 0 0 1.365 2.334 14.985 14.985 0 0 0-1.37 5.434 17.841 17.841 0 0 0-4.053.941zm27.991-9.414A12.999 12.999 0 0 1 44.945 35H33v-8h5.107c.99 0 1.956-.13 2.886-.364zM33 44.586V37h7.586zM23.414 37H31v7.586zM31 26.807l-.06-.149a9.01 9.01 0 0 0-2.205-3.229 13.08 13.08 0 0 1 2.265-.37zm-1.917.593 1.439 3.6h-5.106a6.966 6.966 0 0 1-6.499-4.4l-1.44-3.6h5.107a6.966 6.966 0 0 1 6.499 4.4zm-9.127 3.736A8.948 8.948 0 0 0 25.416 33H31v2H19.061c.103-1.329.4-2.634.895-3.864zM33 19.878v-2.85c.569.03 1.134.089 1.695.169A15.972 15.972 0 0 0 33 19.878zm-2-2.829v4.006c-1.473.099-2.93.413-4.317.938A8.998 8.998 0 0 0 22.584 21h-2.218A18.786 18.786 0 0 1 31 17.049zM20.586 37l6.668 6.668a16.977 16.977 0 0 0-6.571 4.048L19.153 37zm16.16 6.668L43.414 37h1.433l-1.53 10.716a16.985 16.985 0 0 0-6.571-4.048zm10.207-8.557a15.006 15.006 0 0 0-3.861-9.208 12.168 12.168 0 0 0 3.314-2.258A18.885 18.885 0 0 1 51 36l-.002.05a17.796 17.796 0 0 0-4.045-.939zm.933-18.016C46.904 21.676 42.792 25 38.107 25h-4.782l.528-1.847C35.562 17.176 41.097 13 47.314 13h1.448zM34 9v1.439c0 1.458 1.041 2.721 2.508 3.01a3.068 3.068 0 0 0 3.426-1.829l.551-1.33 2.908 1.204a16.118 16.118 0 0 0-7.107 3.952A20.988 20.988 0 0 0 33 15.028V15c0-2.149-.501-4.178-1.37-6zM14.061 5.571 13.325 3H19c6.617 0 12 5.383 12 12h-4.439c-5.774 0-10.915-3.877-12.5-9.429zM6.439 38H5v-4h1.439c1.458 0 2.721-1.041 3.01-2.508a3.071 3.071 0 0 0-1.829-3.426l-1.33-.551 1.53-3.695 1.332.551c1.341.554 2.905.081 3.734-1.158a3.068 3.068 0 0 0-.373-3.871l-1.02-1.02 2.828-2.828 1.02 1.02c1.031 1.031 2.657 1.187 3.897.356a3.074 3.074 0 0 0 1.076-1.256 14.91 14.91 0 0 0 3.376 1.094 20.936 20.936 0 0 0-6.364 4.291h-2.804l.87 2.174A21.046 21.046 0 0 0 11 36c0 .297.02.59.032.884a17.99 17.99 0 0 0-2.798 1.725A3.03 3.03 0 0 0 6.439 38zM3 53c0-8.195 6.197-14.962 14.149-15.884l2.188 15.312 1.645-2.053a14.912 14.912 0 0 1 4.857-3.958l2.125 5.667L26.18 61H13V50.697l-2.168-3.252-1.664 1.109L11 51.303V61H3zm58 8h-8v-9.697l1.832-2.748-1.664-1.109L51 50.697V61H37.82l-1.784-8.916 2.125-5.667a14.926 14.926 0 0 1 4.858 3.958l1.644 2.053 2.188-15.312C54.803 38.038 61 44.805 61 53z" fill="#000000" opacity="1" data-original="#000000" class=""></path></g></svg>