<svg xmlns="http://www.w3.org/2000/svg" version="1.1" xmlns:xlink="http://www.w3.org/1999/xlink" width="512" height="512" x="0" y="0" viewBox="0 0 256 256" style="enable-background:new 0 0 512 512" xml:space="preserve" class=""><g><circle cx="60.64" cy="178.36" r="58.14" fill="#fcdd86" transform="rotate(-45 60.613 178.384)" opacity="1" data-original="#fcdd86"></circle><circle cx="128" cy="60.64" r="58.14" fill="#9be5f9" opacity="1" data-original="#9be5f9" class=""></circle><circle cx="195.36" cy="178.36" r="58.14" fill="#b598f9" opacity="1" data-original="#b598f9"></circle><path fill="#fc657e" d="M157.708 40.167c-7.531-6.616-19.07-5.776-26.158 1.313l-2.128 2.128a2.01 2.01 0 0 1-2.842 0l-2.128-2.128c-7.088-7.088-18.627-7.929-26.158-1.313-8.253 7.249-8.558 19.831-.915 27.474l26.124 26.125a6.361 6.361 0 0 0 8.996 0l26.124-26.125c7.642-7.643 7.337-20.225-.915-27.474zM70.894 162.351c-1.732 0-3.377.367-4.864 1.027a15.045 15.045 0 0 1-12.119 0 11.95 11.95 0 0 0-4.864-1.027c-12.597 0-22.088 12.716-16.821 25.276l9.335 22.264c1.214 4.334 5.128 7.519 9.629 7.442a9.986 9.986 0 0 0 5.103-1.497 7.033 7.033 0 0 1 7.355 0 9.995 9.995 0 0 0 5.103 1.497c4.501.077 8.415-3.108 9.629-7.442l9.335-22.264c5.266-12.557-4.22-25.276-16.821-25.276z" opacity="1" data-original="#fc657e"></path><path fill="#b2e26d" d="M75.606 139.187c-3.645-1.507-7.947-1.23-11.468 1.132s-5.409 6.237-5.397 10.182a2.58 2.58 0 0 0 1.584 2.361c3.645 1.507 7.947 1.23 11.468-1.132s5.409-6.237 5.397-10.182a2.582 2.582 0 0 0-1.584-2.361z" opacity="1" data-original="#b2e26d"></path><path fill="#818182" d="M170.849 154.571a5.847 5.847 0 0 0-5.847 5.847v35.885a5.847 5.847 0 0 0 11.694 0v-35.885a5.847 5.847 0 0 0-5.847-5.847zM159.155 159.293a5.847 5.847 0 0 0-5.847 5.847v26.44a5.847 5.847 0 0 0 11.694 0v-26.44a5.847 5.847 0 0 0-5.847-5.847zM219.871 154.571a5.847 5.847 0 0 0-5.847 5.847v35.885a5.847 5.847 0 0 0 11.694 0v-35.885a5.847 5.847 0 0 0-5.847-5.847z" opacity="1" data-original="#818182"></path><path fill="#818182" d="M231.564 159.293a5.847 5.847 0 0 0-5.847 5.847v26.44a5.847 5.847 0 0 0 11.694 0v-26.44a5.847 5.847 0 0 0-5.847-5.847z" opacity="1" data-original="#818182"></path><path fill="#edf4fc" d="M176.696 172.513h37.328v11.693h-37.328z" opacity="1" data-original="#edf4fc"></path><path fill="#fc657e" d="M215.013 80.2c-3.1-.6-5.6-3-6.2-6.1 0-.1-.3-.1-.3 0-.6 3.1-3.1 5.5-6.2 6.1-.1 0-.1.2 0 .3 3.1.6 5.6 3 6.2 6.1 0 .1.3.1.3 0 .6-3.1 3.1-5.5 6.2-6.1.1-.1.1-.3 0-.3z" opacity="1" data-original="#fc657e"></path><path fill="#70d6f9" d="M57.113 18.1h-2.4v-2.3c0-1.8-1.4-3.2-3.2-3.2-1.7 0-3.2 1.4-3.2 3.1v2.4h-2.3c-1.8 0-3.2 1.4-3.2 3.2-.1 1.7 1.3 3.2 3.2 3.2h2.3v2.3c0 1.8 1.4 3.2 3.2 3.2 1.7 0 3.2-1.4 3.2-3.1v-2.4h2.3c1.8 0 3.2-1.4 3.2-3.2 0-1.7-1.4-3.2-3.1-3.2z" opacity="1" data-original="#70d6f9"></path><circle cx="164.413" cy="252.6" r="3.4" fill="#87d147" opacity="1" data-original="#87d147"></circle><path fill="#f5c84c" d="M80.413 0a3.4 3.4 0 1 0 0 6.8 3.4 3.4 0 0 0 0-6.8zM146.013 235.2c-4.5-.8-8-4.3-8.9-8.7 0-.2-.4-.2-.4 0-.9 4.4-4.4 7.9-8.9 8.7-.2 0-.2.3 0 .4 4.5.8 8 4.3 8.9 8.7 0 .2.4.2.4 0 .9-4.4 4.4-7.9 8.9-8.7.2-.1.2-.4 0-.4z" opacity="1" data-original="#f5c84c"></path><path d="M60.64 117.72C27.203 117.72 0 144.923 0 178.359 0 211.797 27.203 239 60.64 239c33.438 0 60.641-27.203 60.641-60.641 0-33.436-27.203-60.639-60.641-60.639zm0 116.28C29.96 234 5 209.04 5 178.359c0-30.68 24.96-55.64 55.64-55.64s55.641 24.96 55.641 55.64C116.281 209.04 91.32 234 60.64 234zM128 0C94.563 0 67.36 27.203 67.36 60.641c0 33.437 27.203 60.64 60.64 60.64s60.64-27.203 60.64-60.64C188.64 27.203 161.437 0 128 0zm0 116.28c-30.68 0-55.64-24.96-55.64-55.64S97.32 5 128 5s55.64 24.96 55.64 55.641c0 30.679-24.96 55.639-55.64 55.639z" fill="#000000" opacity="1" data-original="#000000" class=""></path><path d="M167.5 63.496h-33c-.878 0-1.692.461-2.144 1.214l-3.382 5.637-7.146-18.262a2.502 2.502 0 0 0-4.457-.399l-7.268 11.811H88.5a2.5 2.5 0 1 0 0 5h23a2.5 2.5 0 0 0 2.129-1.189L119 58.579l7.172 18.328a2.499 2.499 0 0 0 4.471.375l5.272-8.786H167.5a2.5 2.5 0 1 0 0-5zM51.959 144.884a2.496 2.496 0 0 0-3.437.79 2.503 2.503 0 0 0 .78 3.445c.08.051 7.971 5.157 7.971 13.878a2.5 2.5 0 1 0 5 0c0-11.534-9.893-17.85-10.314-18.113zM195.36 117.72c-33.438 0-60.641 27.203-60.641 60.64 0 33.438 27.203 60.641 60.641 60.641 33.437 0 60.64-27.203 60.64-60.641 0-33.437-27.203-60.64-60.64-60.64zm0 116.28c-30.68 0-55.641-24.96-55.641-55.641 0-30.68 24.96-55.64 55.641-55.64S251 147.68 251 178.359C251 209.04 226.04 234 195.36 234z" fill="#000000" opacity="1" data-original="#000000" class=""></path><path d="M166.624 53.64c-.193-5.953-2.773-11.404-7.266-15.351-8.404-7.383-21.395-6.758-29.576 1.423L128 41.493l-1.781-1.781c-8.181-8.181-21.172-8.808-29.576-1.423-4.493 3.946-7.073 9.397-7.266 15.351a21.407 21.407 0 0 0 6.234 15.769l26.124 26.124c1.728 1.728 3.997 2.592 6.266 2.592s4.538-.864 6.266-2.592l26.124-26.124a21.41 21.41 0 0 0 6.233-15.769zm-9.77 12.233L130.73 91.997c-1.459 1.459-4.002 1.459-5.461 0L99.146 65.873c-3.224-3.225-4.919-7.512-4.771-12.072.147-4.556 2.125-8.73 5.568-11.756 2.983-2.62 6.731-3.911 10.525-3.911 4.383 0 8.827 1.725 12.216 5.113l2.127 2.128c.852.852 1.984 1.321 3.189 1.321s2.337-.47 3.188-1.321l2.128-2.128c6.322-6.323 16.311-6.851 22.741-1.202 3.443 3.025 5.421 7.2 5.568 11.756.148 4.56-1.546 8.847-4.771 12.072zM88.279 169.181a20.839 20.839 0 0 0-17.385-9.329c-2.045 0-4.023.418-5.878 1.241-3.159 1.404-6.931 1.404-10.089 0a14.404 14.404 0 0 0-5.878-1.241c-7.001 0-13.5 3.487-17.385 9.329-3.852 5.791-4.487 12.867-1.742 19.413l9.278 22.128c1.604 5.467 6.53 9.175 12.034 9.111a12.535 12.535 0 0 0 6.376-1.871 4.52 4.52 0 0 1 4.723-.001 12.525 12.525 0 0 0 6.376 1.872l.204.001c5.422 0 10.247-3.713 11.83-9.112l9.279-22.128c2.744-6.546 2.109-13.622-1.743-19.413zM85.41 186.66l-9.335 22.264a2.54 2.54 0 0 0-.102.293c-.942 3.363-3.907 5.665-7.177 5.616a7.515 7.515 0 0 1-3.831-1.123 9.495 9.495 0 0 0-4.993-1.408c-1.738 0-3.477.47-4.994 1.409a7.519 7.519 0 0 1-3.83 1.122c-3.274.104-6.237-2.252-7.179-5.616a2.54 2.54 0 0 0-.102-.293l-9.335-22.264c-2.086-4.976-1.615-10.337 1.294-14.711a15.852 15.852 0 0 1 13.222-7.098c1.342 0 2.637.272 3.849.812a17.462 17.462 0 0 0 14.148 0 9.41 9.41 0 0 1 3.849-.812 15.85 15.85 0 0 1 13.222 7.098c2.909 4.374 3.381 9.736 1.294 14.711zM76.561 136.877a14.677 14.677 0 0 0-13.816 1.366 14.68 14.68 0 0 0-6.505 12.267 5.048 5.048 0 0 0 3.128 4.662 14.757 14.757 0 0 0 5.644 1.124c2.87 0 5.716-.842 8.173-2.49a14.68 14.68 0 0 0 6.504-12.266v-.001a5.046 5.046 0 0 0-3.128-4.662zM70.4 149.653c-2.696 1.809-6.105 2.146-9.16.84a9.689 9.689 0 0 1 13.412-8.996c.014.006.038.039.038.059a9.692 9.692 0 0 1-4.29 8.097zM170.849 152.07c-4.603 0-8.347 3.744-8.347 8.347v35.885c0 4.603 3.745 8.347 8.347 8.347s8.347-3.744 8.347-8.347v-35.885c0-4.603-3.744-8.347-8.347-8.347zm3.347 44.232c0 1.846-1.501 3.347-3.347 3.347s-3.347-1.501-3.347-3.347v-35.885a3.35 3.35 0 0 1 3.347-3.347 3.35 3.35 0 0 1 3.347 3.347z" fill="#000000" opacity="1" data-original="#000000" class=""></path><path d="M159.155 156.793c-4.603 0-8.347 3.744-8.347 8.347v26.44c0 4.603 3.744 8.347 8.347 8.347s8.347-3.744 8.347-8.347v-26.44c0-4.603-3.744-8.347-8.347-8.347zm3.347 34.787c0 1.846-1.501 3.347-3.347 3.347s-3.347-1.501-3.347-3.347v-26.44c0-1.846 1.501-3.347 3.347-3.347s3.347 1.501 3.347 3.347zM219.871 152.07c-4.603 0-8.347 3.744-8.347 8.347v35.885c0 4.603 3.744 8.347 8.347 8.347s8.347-3.744 8.347-8.347v-35.885c-.001-4.603-3.745-8.347-8.347-8.347zm3.346 44.232c0 1.846-1.501 3.347-3.347 3.347s-3.347-1.501-3.347-3.347v-35.885c0-1.846 1.501-3.347 3.347-3.347s3.347 1.501 3.347 3.347z" fill="#000000" opacity="1" data-original="#000000" class=""></path><path d="M231.564 156.793c-4.603 0-8.347 3.744-8.347 8.347v26.44c0 4.603 3.744 8.347 8.347 8.347s8.347-3.744 8.347-8.347v-26.44c0-4.603-3.744-8.347-8.347-8.347zm3.347 34.787c0 1.846-1.501 3.347-3.347 3.347s-3.347-1.501-3.347-3.347v-26.44c0-1.846 1.501-3.347 3.347-3.347s3.347 1.501 3.347 3.347zM214.024 170.013h-37.328a2.5 2.5 0 0 0-2.5 2.5v11.693a2.5 2.5 0 0 0 2.5 2.5h37.328a2.5 2.5 0 0 0 2.5-2.5v-11.693a2.5 2.5 0 0 0-2.5-2.5zm-2.5 11.693h-32.328v-6.693h32.328z" fill="#000000" opacity="1" data-original="#000000" class=""></path></g></svg>